<?xml version="1.0" standalone="no"?>
<svg width="144" height="26" viewBox="0 0 144 26" fill="none" xmlns="http://www.w3.org/2000/svg">
<path d="M39.983 23.2248C40.6004 23.2248 41 23.5444 41 24.1124C41 24.6804 40.6004 25 39.983 25H31.0897C30.4358 25 30 24.6094 30 23.935V2.06515C30 1.39057 30.3632 1 31.017 1C31.6344 1 31.9976 1.39057 31.9976 2.06515V23.2248H39.983Z" fill="#4CBBEC"/>
<path d="M45 3.26124C45 2.46851 45.3583 2 45.9852 2C46.6418 2 47 2.46851 47 3.26124C47 4.01802 46.6418 4.45042 45.9852 4.45042C45.3583 4.45042 45 4.01802 45 3.26124ZM46.7612 9.45943V24.9909C46.7612 25.6036 46.4925 26 45.9852 26C45.5075 26 45.2389 25.6036 45.2389 24.9909V9.45943C45.2389 8.81082 45.5075 8.41439 45.9852 8.41439C46.4925 8.41439 46.7612 8.81082 46.7612 9.45943Z" fill="#4CBBEC"/>
<path d="M69 8.92214C69 9.14343 68.9292 9.32792 68.8229 9.54921L61.4916 25.2622C61.2791 25.7048 60.9605 26 60.4645 26C59.9687 26 59.7207 25.7048 59.5083 25.2622L52.1417 9.51226C52.0353 9.25415 52 9.06967 52 8.92214C52 8.40578 52.3541 8 52.8854 8C53.3457 8 53.5582 8.18448 53.8062 8.70084L60.5 23.2336H60.5708L67.2646 8.62708C67.4771 8.18448 67.7604 8 68.1501 8C68.6812 8 69 8.36883 69 8.92214Z" fill="#4CBBEC"/>
<path d="M74 3.26124C74 2.46851 74.3583 2 74.985 2C75.6418 2 76 2.46851 76 3.26124C76 4.01802 75.6418 4.45042 74.985 4.45042C74.3583 4.45042 74 4.01802 74 3.26124ZM75.7612 9.45943V24.9909C75.7612 25.6036 75.4925 26 74.985 26C74.5075 26 74.2389 25.6036 74.2389 24.9909V9.45943C74.2389 8.81082 74.5075 8.41439 74.985 8.41439C75.4925 8.41439 75.7612 8.81082 75.7612 9.45943Z" fill="#4CBBEC"/>
<path d="M91.762 22.9269C90.8101 24.939 88.8725 26 86.2549 26C82.3456 26 80 23.3659 80 18.939V4.15847C80 2.80497 80.7139 2 81.8696 2C83.0255 2 83.7394 2.80497 83.7394 4.15847V8.03655H89.3824C90.5381 8.03655 91.252 8.73169 91.252 9.90249C91.252 11.0366 90.5381 11.7318 89.3824 11.7318H83.7394V19.0488C83.7394 21.1341 84.7591 22.3049 86.4249 22.3049C87.5127 22.3049 88.3286 21.7561 88.8384 20.8781C89.1444 20.3659 89.6203 20 90.2662 20C91.252 20 92 20.6586 92 21.8659C92 22.2684 91.8979 22.6342 91.762 22.9269Z" fill="#4CBBEC"/>
<path d="M115 10.326V23.6739C115 24.9979 114.262 25.7853 113.031 25.7853C111.871 25.7853 111.133 24.9979 111.133 23.6739V23.4951H111.062C109.762 25.1054 107.758 26 105.227 26C100.27 26 97 22.4214 97 17.0179C97 11.5786 100.27 8 105.227 8C107.758 8 109.762 8.89464 111.062 10.5049H111.133V10.326C111.133 9.03777 111.871 8.2147 113.031 8.2147C114.262 8.2147 115 9.03777 115 10.326ZM111.133 17.0179C111.133 13.833 109.023 11.6143 106 11.6143C103.012 11.6143 100.938 13.7971 100.938 17.0179C100.938 20.2027 103.012 22.3857 106 22.3857C109.023 22.3857 111.133 20.167 111.133 17.0179Z" fill="#4CBBEC"/>
<path d="M124 2.15455V23.8454C124 25.1965 123.273 26 122 26C120.764 26 120 25.1965 120 23.8454V2.15455C120 0.803456 120.764 0 122 0C123.273 0 124 0.803456 124 2.15455Z" fill="#4CBBEC"/>
<path d="M143.318 22.3483C143.713 22.823 144 23.2977 144 23.9915C144 25.1965 143.211 26 142.027 26C141.345 26 140.771 25.6713 140.341 25.1235L134.744 18.2218L131.946 20.4128V23.8454C131.946 25.1965 131.229 26 129.973 26C128.753 26 128 25.1965 128 23.8454V2.15455C128 0.803456 128.753 0 129.973 0C131.229 0 131.946 0.803456 131.946 2.15455V15.9214L140.341 8.76399C140.879 8.32582 141.309 8.07029 141.919 8.07029C143.067 8.07029 143.821 8.8736 143.821 10.0421C143.821 10.6995 143.605 11.2107 143.031 11.6488L137.794 15.8117L143.318 22.3483Z" fill="#4CBBEC"/>
<path fill-rule="evenodd" clip-rule="evenodd" d="M10.422 19.165H20.8451C22.9556 19.165 25 16.8991 25 14.6334V5.53196C25 3.2667 22.9556 1 20.8451 1H4.1887C2.07825 1 0 3.2667 0 5.53196V14.6334C0 16.8991 2.07825 19.165 4.1887 19.165V26L10.422 19.165Z" fill="#4CBBEC"/>
<path fill-rule="evenodd" clip-rule="evenodd" d="M14.6871 17.5319H5.31419C3.63077 17.5319 2 15.7193 2 13.9067V6.62567C2 4.81327 3.63077 3 5.31419 3H19.6589C21.3423 3 23 4.81327 23 6.62567V13.9067C23 15.7193 21.3423 17.5319 19.6589 17.5319V23L14.6871 17.5319Z" fill="#4CBBEC"/>
</svg>

